# xmcd CD database file
#
# Track frame offsets:
#	150
#	28552
#	50754
#	68531
#	88333
#	107612
#	120524
#	138678
#	143252
#	159024
#
# Disc length: 2285 seconds
#
# Revision: 1
# Processed by: cddbd v1.5.1PL0 Copyright (c) Steve Scherf et al.
# Submitted via: CDex 1.51
#
DISCID=7c08eb0a
DTITLE=大貫妙子 - アトラクシオン
DYEAR=1900
DGENRE=Misc
TTITLE0=Ｃｏｓｍｉｃ　Ｍｏｏｎ
TTITLE1=枯葉
TTITLE2=それとも
TTITLE3=昨日，今日，明日
TTITLE4=四季
TTITLE5=Ｋｉｓｓ　Ｔｈｅ　Ｄｒｅａｍ
TTITLE6=Ｍｏｎ　ｄｏｕｘ　Ｓｏｌｅｉｌ
TTITLE7=Ｃｉｃａｄａ
TTITLE8=風の旅人
TTITLE9=Ｋｉｓｓ　Ｔｈｅ　Ｄｒｅａｍ（ＰＩＡＮＯ）
EXTD=
EXTT0=
EXTT1=
EXTT2=
EXTT3=
EXTT4=
EXTT5=
EXTT6=
EXTT7=
EXTT8=
EXTT9=
PLAYORDER=
